<?xml version="1.0" standalone="no"?><!DOCTYPE svg PUBLIC "-//W3C//DTD SVG 1.1//EN" "http://www.w3.org/Graphics/SVG/1.1/DTD/svg11.dtd"><svg t="1608372491637" class="icon" viewBox="0 0 1024 1024" version="1.1" xmlns="http://www.w3.org/2000/svg" p-id="4535" xmlns:xlink="http://www.w3.org/1999/xlink" width="200" height="200"><defs><style type="text/css"></style></defs><path d="M512 62C263.5 62 62 263.5 62 512s201.5 450 450 450 450-201.5 450-450S760.5 62 512 62z m114.9 664.1c-6.5 6.3-16.9 6.2-23.4-0.4L396.8 513.5c-3-3.1-4.7-7.2-4.7-11.5v-0.4c0.1-4.6 2.1-8.7 5.3-11.8l206.7-192.1c6.7-6.2 17.2-5.8 23.4 0.9 6.2 6.7 5.8 17.2-0.9 23.4L432.3 502.7l195 200c6.3 6.5 6.2 16.9-0.4 23.4z" p-id="4536" fill="#ffffff"></path></svg>