<?xml version="1.0" standalone="no"?><!DOCTYPE svg PUBLIC "-//W3C//DTD SVG 1.1//EN" "http://www.w3.org/Graphics/SVG/1.1/DTD/svg11.dtd"><svg t="1608372461309" class="icon" viewBox="0 0 1024 1024" version="1.1" xmlns="http://www.w3.org/2000/svg" p-id="3584" xmlns:xlink="http://www.w3.org/1999/xlink" width="200" height="200"><defs><style type="text/css"></style></defs><path d="M512 62C263.5 62 62 263.5 62 512s201.5 450 450 450 450-201.5 450-450S760.5 62 512 62z m119.9 440c0 4.3-1.7 8.4-4.7 11.5L420.5 725.7c-6.5 6.6-16.9 6.7-23.4 0.4-6.6-6.5-6.7-16.9-0.4-23.4l195-200L397.4 322c-6.7-6.2-7.1-16.7-0.9-23.4 6.2-6.7 16.7-7.1 23.4-0.9l206.7 192.1c3.2 3.1 5.2 7.2 5.3 11.8v0.4z" p-id="3585" fill="#ffffff"></path></svg>